<svg xmlns="http://www.w3.org/2000/svg" aria-hidden="true" style="position:absolute;width:0;height:0;overflow:hidden"><defs><symbol id="icon-arrow-down" viewBox="0 0 32 32"><path stroke-linecap="round" stroke-linejoin="round" stroke-width="2" d="M16 1v30M2 17l14 14 14-14"/></symbol><symbol id="icon-Group-1" viewBox="0 0 132 32"><path fill="#696871" d="M28.512 11.424c.384 0 .512.139.512.512v8.448h4.341c.373 0 .512.139.512.512v.747c0 .373-.139.512-.512.512h-5.717c-.373 0-.523-.139-.523-.512v-9.707c0-.373.149-.512.523-.512h.864zM41.931 11.2c-2.709 0-4.267 1.483-4.267 3.947v3.285c0 2.464 1.568 3.947 4.267 3.947s4.267-1.483 4.267-3.947v-3.285c0-2.464-1.557-3.947-4.267-3.947zm.053 1.813c1.557 0 2.421.747 2.421 2.133v3.307c0 1.365-.864 2.133-2.421 2.133s-2.411-.736-2.411-2.133v-3.307c0-1.376.853-2.133 2.411-2.133zM58.901 16.277c.416 0 .512.139.512.512v2.027a3.199 3.199 0 0 1-1.131 2.517 4.651 4.651 0 0 1-3.2 1.003c-2.763 0-4.267-1.483-4.267-3.947v-3.307c0-2.432 1.557-3.925 4.267-3.925 2.133 0 3.52.843 4.107 2.528a.458.458 0 0 1-.32.661l-.832.288c-.363.128-.512.053-.64-.32a2.2 2.2 0 0 0-2.315-1.387c-1.568 0-2.421.757-2.421 2.133v3.392c0 1.397.864 2.133 2.421 2.133s2.517-.715 2.517-1.76v-.789h-2.315c-.384 0-.523-.149-.523-.523v-.725c0-.373.139-.512.523-.512H58.9zM68.085 11.2c-2.709 0-4.267 1.483-4.267 3.947v3.285c0 2.464 1.568 3.947 4.267 3.947s4.267-1.483 4.267-3.947v-3.285c0-2.464-1.557-3.947-4.267-3.947zm.054 1.813c1.547 0 2.411.747 2.411 2.133v3.307c0 1.365-.853 2.133-2.411 2.133s-2.421-.736-2.421-2.133v-3.307c0-1.376.875-2.133 2.421-2.133zM77.376 11.733c0-.235.075-.309.309-.309h.491c.235 0 .288.075.288.309v10.112c0 .235 0 .309-.288.309h-.491c-.235 0-.309-.075-.309-.309V11.733zM91.531 14.773a3.35 3.35 0 0 0-3.349-3.349h-3.979c-.224 0-.309.075-.309.309v10.112c0 .235.085.309.309.309h.501c.224 0 .277-.075.277-.309v-3.723h3.2a3.35 3.35 0 0 0 3.349-3.349zm-1.432 1.131a2.326 2.326 0 0 1-2.014 1.163h-3.2v-4.651h3.2a2.325 2.325 0 0 1 2.014 3.488zM99.861 11.211a3.851 3.851 0 0 1 3.968 2.325c.085.171 0 .309-.171.395l-.469.213c-.192.075-.267.064-.384-.139a2.9 2.9 0 0 0-2.944-1.749c-1.803 0-2.784.715-2.784 1.995a1.621 1.621 0 0 0 1.355 1.643 7.227 7.227 0 0 0 1.771.341 7.339 7.339 0 0 1 2.133.437A2.4 2.4 0 0 1 104 19.2c0 1.995-1.451 3.2-4.117 3.2a3.85 3.85 0 0 1-4.085-2.592.288.288 0 0 1 .181-.405l.469-.171a.287.287 0 0 1 .384.181 3.051 3.051 0 0 0 3.051 1.92c2.016 0 3.008-.704 3.008-2.133a1.59 1.59 0 0 0-1.248-1.632 7.458 7.458 0 0 0-1.696-.299l-1.152-.149a10.056 10.056 0 0 1-1.067-.288 2.803 2.803 0 0 1-.949-.501 2.602 2.602 0 0 1-.853-2.037c.075-1.867 1.472-3.083 3.936-3.083zM109.749 18.507a2.965 2.965 0 0 0 5.92 0v-6.773c0-.235.075-.309.309-.309h.491c.235 0 .309.075.309.309v6.763c0 2.421-1.429 3.883-4.064 3.883s-4.064-1.461-4.064-3.883v-6.763c0-.235.075-.309.299-.309h.501c.224 0 .299.075.299.309v6.773zM131.499 11.424c.235 0 .309.075.309.309v10.112c0 .235-.075.309-.309.309h-.448c-.224 0-.299-.075-.299-.309V15.69c0-.896.061-1.79.181-2.677h-.064a19.163 19.163 0 0 1-1.163 2.357l-2.293 4.043a.374.374 0 0 1-.352.235h-.299a.394.394 0 0 1-.363-.235l-2.325-4.085a17.308 17.308 0 0 1-1.067-2.325h-.064c.109.895.166 1.797.171 2.699v6.144c0 .235-.075.309-.309.309h-.416c-.235 0-.309-.075-.309-.309V11.734c0-.235.075-.309.309-.309h.384a.428.428 0 0 1 .427.245l3.733 6.635 3.712-6.571c.117-.224.181-.256.416-.256l.437-.053zM2.464 1.803v21.664a1.003 1.003 0 0 1-1.003 1.003h-.235a1.003 1.003 0 0 1-1.003-1.003V1.803c.006-.55.453-.992 1.003-.992h.235c.55 0 .997.442 1.003.992zm12.299 13.733c.212-.202.497-.308.789-.293l-.053.021a1.065 1.065 0 0 1 1.174 1.12v5.867a1.12 1.12 0 1 1-2.24 0V16.31c0-.292.119-.572.331-.774zm3.2 3.088c0-.589.478-1.067 1.067-1.067a1.07 1.07 0 0 1 1.163 1.12v1.291a1.115 1.115 0 1 1-2.23 0v-1.344zm-8.427 8.875v-7.712a1.833 1.833 0 0 1-1.163.373 1.885 1.885 0 0 1-1.067-.363v7.701a1.115 1.115 0 1 0 2.23 0zm-4.651-4.79a1.925 1.925 0 0 1-1.067-.363v7.733a1.12 1.12 0 1 0 2.24 0v-7.68a1.945 1.945 0 0 1-1.173.309zm7.126-5.184a1.948 1.948 0 0 1-1.12-.363v7.755a1.12 1.12 0 1 0 2.24 0v-7.744a1.887 1.887 0 0 1-1.173.373l.053-.021zm-7.008 4.363h-.235a1.003 1.003 0 0 1-1.003-1.003V4.384c.006-.55.453-.992 1.003-.992h.235c.55 0 .997.442 1.003.992v16.523c0 .554-.449 1.003-1.003 1.003v-.021zm3.285-2.539h.245a.992.992 0 0 0 .992-.992V6.944c0-.55-.442-.997-.992-1.003h-.245a.992.992 0 0 0-.992 1.002v11.413c0 .548.444.992.992.992zm3.776-2.613h-.224c-.55 0-.997-.442-1.003-.992V9.6a1.002 1.002 0 0 1 1.003-1.067h.235c.554 0 1.003.449 1.003 1.003v6.187a1.003 1.003 0 0 1-1.003 1.013h-.011zm3.307-2.293h.245c.55-.006.992-.453.992-1.003v-1.589a1.003 1.003 0 0 0-1.003-.992h-.235c-.55 0-.997.442-1.003.992v1.589c0 .554.449 1.003 1.003 1.003z" style="fill:var(--color1, #696871)"/></symbol><symbol id="icon-Group-2" viewBox="0 0 67 32"><path fill="#696871" d="M.527 19.193h2V29h-2v-9.807zM5.88 22.346a3.56 3.56 0 0 0-2.193 3.294 3.52 3.52 0 0 0 3.56 3.553 3.56 3.56 0 1 0-1.367-6.846zm1.341 1.788a1.547 1.547 0 0 1 1.573 1.506 1.504 1.504 0 0 1-1.547 1.586 1.546 1.546 0 0 1-.026-3.093zM18.847 28.667V22.28l-1.967.02v.667a2.391 2.391 0 0 0-1.96-.873 3.413 3.413 0 1 0 0 6.826 2.374 2.374 0 0 0 1.96-.873v.62a1.333 1.333 0 0 1-1.547 1.44 1.533 1.533 0 0 1-1.5-.847l-1.72.993a3.434 3.434 0 0 0 3.18 1.627c1.787 0 3.553-.953 3.553-3.213zm-2.924-4.71c.605.273.984.886.957 1.55a1.521 1.521 0 0 1-1.626 1.56 1.626 1.626 0 0 1-1.124-2.801 1.628 1.628 0 0 1 1.795-.309zM22.193 22.346A3.56 3.56 0 0 0 20 25.64a3.52 3.52 0 0 0 3.56 3.553 3.561 3.561 0 0 0 2.515-6.079 3.558 3.558 0 0 0-3.882-.767zm1.341 1.788a1.547 1.547 0 0 1 1.573 1.506h-.013a1.506 1.506 0 0 1-1.533 1.586 1.546 1.546 0 0 1-.026-3.093zM29.26 19.267c-.67 0-1.213.543-1.213 1.213a1.22 1.22 0 0 0 1.213 1.213 1.213 1.213 0 1 0 0-2.426zm.993 3.013h-2V29h2v-6.72zM38.109 28.084a3.374 3.374 0 0 0 .864-2.444 3.37 3.37 0 0 0-3.206-3.547 2.554 2.554 0 0 0-2 .82v-.633h-2v9.427h2v-3.333a2.554 2.554 0 0 0 2 .82 3.373 3.373 0 0 0 2.343-1.109zm-2.749-4.003a1.6 1.6 0 0 1 1.613 1.559h-.013a1.533 1.533 0 0 1-1.627 1.64 1.6 1.6 0 0 1 .027-3.199zM45.2 26.987c0 1.547-1.333 2.207-2.8 2.207a2.947 2.947 0 0 1-2.887-1.6l1.747-.993c.146.5.621.83 1.14.793.487 0 .727-.153.727-.42 0-.74-3.333-.347-3.333-2.667 0-1.467 1.24-2.207 2.667-2.207a2.954 2.954 0 0 1 2.627 1.44l-1.753.92a.993.993 0 0 0-.907-.593c-.347 0-.56.133-.56.38.027.767 3.333.253 3.333 2.74zM52.56 22.28V29h-2v-.627a2.299 2.299 0 0 1-1.92.82c-1.333 0-2.513-.967-2.513-2.787v-4.127h2v3.833a1.106 1.106 0 0 0 1.206 1.22c.733 0 1.247-.427 1.247-1.38v-3.673h1.98zM64.12 24.88V29h-2v-3.947c0-.667-.327-1.107-.967-1.107s-1.053.473-1.053 1.267V29h-2v-3.947c0-.667-.32-1.107-.967-1.107s-1.047.473-1.047 1.267V29h-2v-6.72h2v.62a2.069 2.069 0 0 1 1.8-.807 2 2 0 0 1 1.76.887 2.217 2.217 0 0 1 1.947-.887c1.52 0 2.527 1.107 2.527 2.787zM65.827 22.24a1.493 1.493 0 1 0 0-2.986 1.493 1.493 0 0 0 0 2.986zM23.16 14.107a6.993 6.993 0 1 0 0-13.986 6.993 6.993 0 0 0 0 13.986zM38.793 14.107a6.993 6.993 0 1 0 0-13.986 6.993 6.993 0 0 0 0 13.986zM.54.12h13.98V14.1H.54V.12z" style="fill:var(--color1, #696871)"/></symbol><symbol id="icon-Group-3" viewBox="0 0 135 32"><path fill="#696871" d="M43.291 22.16a3.025 3.025 0 0 1-1.909-.549 1.784 1.784 0 0 1-.72-1.497V9.52a.298.298 0 0 1 .332-.332h1.92c.217 0 .32.114.32.331v9.771c0 .434.194.651.594.651.169.007.339-.012.503-.057.229 0 .354.069.366.274l.171 1.429a.298.298 0 0 1-.275.355c-.421.139-.86.212-1.303.217zM47.234 20.937a5.383 5.383 0 0 0 6.857 0v-.011a4.64 4.64 0 0 0 0-6.423 5.406 5.406 0 0 0-6.857 0 4.57 4.57 0 0 0 0 6.434zm5.075-1.508c-.928.84-2.341.84-3.269 0a2.56 2.56 0 0 1 0-3.36 2.435 2.435 0 0 1 3.269 0 2.56 2.56 0 0 1 0 3.36zM66.274 13.897c0-.217-.103-.331-.32-.331l-1.897.011a.297.297 0 0 0-.32.332v.183a3.838 3.838 0 0 0-2.434-.789 4.47 4.47 0 0 0-3.246 1.234 4.57 4.57 0 0 0 0 6.354 4.432 4.432 0 0 0 3.246 1.246 3.827 3.827 0 0 0 2.377-.743v.72a1.947 1.947 0 0 1-.537 1.429 2.025 2.025 0 0 1-1.474.526 2.672 2.672 0 0 1-1.28-.297 1.494 1.494 0 0 1-.697-.811.424.424 0 0 0-.377-.263h-1.92c-.309 0-.309.103-.309.331a3.432 3.432 0 0 0 1.497 2.286c.92.596 2.001.896 3.097.857a4.803 4.803 0 0 0 3.326-1.143 3.727 3.727 0 0 0 1.269-2.937v-8.194zm-3.188 5.532c-.396.446-.97.693-1.566.674a2.073 2.073 0 0 1-1.589-.674 2.472 2.472 0 0 1-.606-1.703 2.422 2.422 0 0 1 .617-1.714 2.056 2.056 0 0 1 1.589-.674c.59-.02 1.16.223 1.554.663a2.8 2.8 0 0 1 0 3.429zM69.28 20.937a5.406 5.406 0 0 0 6.857 0v-.011a4.64 4.64 0 0 0 0-6.423 5.416 5.416 0 0 0-6.857 0 4.65 4.65 0 0 0 0 6.434zm3.44-.88a2.29 2.29 0 0 1-1.646-.628 2.595 2.595 0 0 1 0-3.36 2.288 2.288 0 0 1 1.646-.629 2.279 2.279 0 0 1 1.634.629 2.595 2.595 0 0 1 0 3.36 2.285 2.285 0 0 1-1.634.628z" style="fill:var(--color1, #696871)"/><path d="m76.137 20.937.362.442.209-.171v-.27h-.571zm-6.857 0-.413.395.024.025.027.022.362-.442zm6.857-.011-.412-.396-.159.166v.23h.571zm0-6.423.412-.396-.024-.025-.027-.022-.362.443zm-6.857 0-.362-.443-.027.022-.024.025.413.395zm1.794 4.926-.435.37.02.023.022.021.394-.414zm1.646.628.015-.571h-.032l.018.571zm-1.646-3.988-.394-.414-.022.021-.02.023.435.37zm1.646-.629-.018.571h.032l-.015-.571zm1.634.629.435-.37-.02-.023-.022-.021-.394.414zm0 3.36.394.414.022-.021.02-.023-.435-.37zm1.421 1.066a4.835 4.835 0 0 1-6.132 0l-.725.884a5.977 5.977 0 0 0 7.582 0l-.725-.884zm-.209.431v.011h1.143v-.011h-1.143zm.159-6.028a4.07 4.07 0 0 1 0 5.632l.825.791a5.212 5.212 0 0 0 0-7.214l-.825.791zm-6.084.047a4.845 4.845 0 0 1 6.134 0l.723-.885a5.987 5.987 0 0 0-7.58 0l.723.885zm.052 5.597a4.08 4.08 0 0 1 0-5.644l-.825-.79a5.224 5.224 0 0 0 0 7.225l.825-.791zm.987-.699a2.86 2.86 0 0 0 2.057.786l-.035-1.142a1.717 1.717 0 0 1-1.234-.471l-.788.828zm-.041-4.144a3.165 3.165 0 0 0 0 4.1l.871-.74a2.023 2.023 0 0 1 0-2.62l-.871-.74zm2.098-.83a2.852 2.852 0 0 0-2.057.786l.788.828a1.708 1.708 0 0 1 1.234-.471l.035-1.142zm2.011.786a2.86 2.86 0 0 0-2.043-.786l.03 1.143c.455-.012.896.158 1.226.471l.788-.828zm.042 4.144a3.165 3.165 0 0 0 0-4.1l-.871.74a2.023 2.023 0 0 1 0 2.62l.871.74zm-2.085.829a2.856 2.856 0 0 0 2.043-.786l-.788-.828c-.33.314-.771.483-1.226.471l-.03 1.142z" style="fill:var(--color2, #000)"/><path fill="#696871" d="M79.371 11.623a1.657 1.657 0 0 0 2.183 0 1.382 1.382 0 0 0 0-2.012 1.692 1.692 0 0 0-2.183 0 1.382 1.382 0 0 0 0 2.012zm.515 9.988a3.076 3.076 0 0 0 1.909.549c.447-.004.89-.077 1.314-.217a.298.298 0 0 0 .275-.355l-.171-1.429c-.011-.206-.137-.274-.366-.274a1.784 1.784 0 0 1-.514.057c-.389 0-.583-.217-.583-.651v-5.394c0-.217-.103-.331-.32-.331h-1.92a.298.298 0 0 0-.332.332v6.217c-.02.584.244 1.142.709 1.497zM93.714 14.526a4.48 4.48 0 0 0-3.269-1.234 3.85 3.85 0 0 0-2.823 1.143 2.114 2.114 0 0 0-2.069-1.143 3.412 3.412 0 0 0-1.234.206.365.365 0 0 0-.263.377v1.349c0 .183.126.274.377.274h.377a.596.596 0 0 1 .675.674v9.371a.275.275 0 0 0 .32.32h1.92c.217 0 .331-.103.331-.32v-4.126a3.933 3.933 0 0 0 2.389.743 4.445 4.445 0 0 0 3.269-1.246 4.686 4.686 0 0 0 0-6.389zm-3.474 5.576a2.18 2.18 0 0 1-1.577-.674 2.56 2.56 0 0 1-.606-1.749 2.526 2.526 0 0 1 .606-1.749 2.184 2.184 0 0 1 3.154 0c.432.477.659 1.106.629 1.749a2.469 2.469 0 0 1-.629 1.749c-.412.43-.982.674-1.577.674zM100.366 22.16a5.504 5.504 0 0 1-2.937-.709 2.787 2.787 0 0 1-1.326-2.023c0-.229.08-.343.331-.343h1.68a.432.432 0 0 1 .377.251c.24.617.869.926 1.874.926.351.016.7-.055 1.017-.206a.665.665 0 0 0 .389-.56c0-.297-.183-.503-.549-.64a6.236 6.236 0 0 0-1.337-.286 12.587 12.587 0 0 1-1.6-.286 2.63 2.63 0 0 1-1.337-.766 2.448 2.448 0 0 1 .492-3.543 4.706 4.706 0 0 1 2.766-.731 5.056 5.056 0 0 1 2.697.674 2.545 2.545 0 0 1 1.257 1.794c0 .229-.103.343-.309.343h-1.691a.353.353 0 0 1-.343-.206 1.143 1.143 0 0 0-.594-.606 2.023 2.023 0 0 0-.983-.229 1.996 1.996 0 0 0-.971.194.571.571 0 0 0-.366.526.73.73 0 0 0 .549.674c.439.165.895.28 1.36.343.534.07 1.065.169 1.589.297a2.63 2.63 0 0 1 1.337.766c.388.426.59.99.56 1.566a2.287 2.287 0 0 1-1.063 1.989 5.003 5.003 0 0 1-2.869.789zM116.377 21.589a.31.31 0 0 1-.263.354 4.428 4.428 0 0 1-1.291.217 2.54 2.54 0 0 1-2.286-.994 4.136 4.136 0 0 1-2.914.994 3.544 3.544 0 0 1-2.674-1.04 3.749 3.749 0 0 1-1.017-2.754v-4.469c0-.217.103-.331.32-.331h1.92c.217 0 .32.114.32.331v4.126a2.025 2.025 0 0 0 .491 1.406c.34.361.819.556 1.314.537.506.022 1-.159 1.371-.503.352-.363.538-.855.514-1.36v-4.206c0-.217.103-.331.32-.331h1.943c.217 0 .32.114.32.331v5.383c0 .446.194.663.571.663.177.007.354-.012.526-.057a.298.298 0 0 1 .377.274l.137 1.429zM134.537 21.589a.283.283 0 0 1-.048.239.28.28 0 0 1-.215.115 4.443 4.443 0 0 1-1.314.217 3.051 3.051 0 0 1-1.909-.549 1.783 1.783 0 0 1-.766-1.497v-2.686a2.023 2.023 0 0 0-.48-1.406 1.62 1.62 0 0 0-1.28-.537 1.428 1.428 0 0 0-1.143.503 2.031 2.031 0 0 0-.434 1.349v4.217c0 .217-.103.331-.32.331h-1.931a.298.298 0 0 1-.332-.332v-4.126a2.117 2.117 0 0 0-.446-1.406 1.485 1.485 0 0 0-1.143-.537 1.656 1.656 0 0 0-1.257.503 1.889 1.889 0 0 0-.469 1.349v4.217a.3.3 0 0 1-.332.332h-1.863c-.217 0-.32-.114-.32-.331v-5.383a.593.593 0 0 0-.674-.674h-.377c-.251 0-.377-.091-.377-.274v-1.349a.364.364 0 0 1 .263-.377 3.437 3.437 0 0 1 1.234-.206 2.15 2.15 0 0 1 2.034 1.051 3.858 3.858 0 0 1 2.903-1.051 3.282 3.282 0 0 1 2.709 1.211 3.771 3.771 0 0 1 2.994-1.211 3.614 3.614 0 0 1 2.709 1.04 3.722 3.722 0 0 1 1.017 2.754v2.206c0 .434.194.651.56.651a1.73 1.73 0 0 0 .526-.057c.237 0 .362.091.377.274l.103 1.429zM.526 12.08a15.646 15.646 0 0 1 30.366 0h-1.371a11.071 11.071 0 0 0-6.48 1.977c-.11.079-.224.152-.343.217h-.16a3.303 3.303 0 0 1-.343-.217 11.623 11.623 0 0 0-12.971 0c-.11.079-.224.152-.343.217h-.16a3.303 3.303 0 0 1-.343-.217 11.073 11.073 0 0 0-6.48-1.977H.527zm26.525 7.166a3.852 3.852 0 0 1 2.469-.811h1.84v-3.669h-1.84a7.293 7.293 0 0 0-4.377 1.394 4.16 4.16 0 0 1-4.937 0 7.77 7.77 0 0 0-8.88 0 4.16 4.16 0 0 1-4.937 0 7.288 7.288 0 0 0-4.434-1.394H.058v3.669h1.84a3.852 3.852 0 0 1 2.469.811 7.75 7.75 0 0 0 8.869 0 3.877 3.877 0 0 1 2.469-.811 3.835 3.835 0 0 1 2.469.811 7.77 7.77 0 0 0 8.88 0zm2.469 5.748a3.852 3.852 0 0 0-2.469.811 7.77 7.77 0 0 1-8.88 0 3.825 3.825 0 0 0-2.469-.811 3.877 3.877 0 0 0-2.469.811 7.75 7.75 0 0 1-8.869 0 3.852 3.852 0 0 0-2.469-.811H.055v-3.669h1.897a7.292 7.292 0 0 1 4.434 1.394 4.16 4.16 0 0 0 4.937 0 7.77 7.77 0 0 1 8.88 0 4.16 4.16 0 0 0 4.937 0 7.293 7.293 0 0 1 4.377-1.394h1.84v3.669h-1.84z" style="fill:var(--color1, #696871)"/></symbol><symbol id="icon-Group-4" viewBox="0 0 137 32"><path fill="#696871" d="M80.76 9.084a1.75 1.75 0 1 1 .723 3.343 1.686 1.686 0 0 1-1.728-1.664l-.021-.011a1.747 1.747 0 0 1 1.027-1.668zm-38.392.793v13.867h-3.424V9.877h3.424zm6.699 3.158c3.2 0 5.333 2.059 5.333 5.493s-2.059 5.515-5.333 5.515c-3.275 0-5.333-2.005-5.333-5.515 0-3.435 2.133-5.493 5.333-5.493zm1.941 5.493c0-1.888-.736-2.997-1.909-2.997S47.2 16.598 47.2 18.528c0 1.931.725 2.987 1.899 2.987s1.931-1.056 1.931-2.976l-.021-.011zm8.064 5.931a1.77 1.77 0 0 0 1.856 1.067c1.312 0 1.995-.704 1.995-1.749v-1.898a3.274 3.274 0 0 1-3.189 1.844c-2.507 0-4.171-1.909-4.171-5.195s1.589-5.333 4.267-5.333a3.274 3.274 0 0 1 3.104 1.806v-1.72h3.392V23.67c0 2.507-2.219 4.075-5.483 4.075-2.965-.011-4.864-1.365-5.056-3.275l-.021-.011h3.307zm3.861-5.931c0-1.675-.768-2.731-1.984-2.731s-1.963 1.067-1.963 2.731.736 2.645 1.963 2.645 1.984-.907 1.984-2.645zm10.08-5.493c3.2 0 5.333 2.059 5.333 5.493s-2.069 5.515-5.333 5.515c-3.264 0-5.312-2.005-5.312-5.515h-.021c0-3.435 2.133-5.493 5.333-5.493zm1.942 5.493c0-1.888-.747-2.997-1.909-2.997s-1.899 1.067-1.899 2.997c0 1.931.725 2.987 1.899 2.987s1.931-1.056 1.931-2.976l-.021-.011zm4.778-5.259.053 10.517h3.413V13.269h-3.467zM91.52 23.936a3.276 3.276 0 0 1-3.2-1.952h-.064v5.184h-3.424V13.301h3.403v1.877h.064a3.296 3.296 0 0 1 3.2-2.027c2.688-.021 4.235 1.952 4.235 5.387l-.064-.011c0 3.424-1.536 5.408-4.149 5.408zm.661-5.408c0-1.664-.779-2.741-1.984-2.741s-1.963 1.067-1.973 2.741c-.011 1.675.768 2.731 1.973 2.731s2.048-.992 2.048-2.72l-.064-.011zm14.006-1.973c-.021-2.176-1.803-3.531-4.672-3.531l.064.011c-2.891 0-4.683 1.333-4.747 3.424 0 1.611 1.077 2.688 3.136 3.125l1.984.416c.821.171 1.141.267 1.141.832s-.469.885-1.472.885c-1.003 0-1.621-.459-1.717-1.237h-3.317c.139 2.144 2.048 3.552 4.981 3.552s4.907-1.451 4.907-3.584c0-1.589-.853-2.443-2.987-2.891l-2.197-.448c-.789-.16-1.184-.331-1.184-.875s.448-.907 1.387-.907c.939 0 1.568.469 1.568 1.227h3.125zm11.754 7.221h-3.317v-1.973h-.064a3.008 3.008 0 0 1-3.061 2.187 3.656 3.656 0 0 1-3.765-3.958V13.28h3.424v6.016c0 1.237.651 1.909 1.717 1.909a1.747 1.747 0 0 0 1.717-2.005v-5.92h3.413l-.064 10.496zm4.982-10.507h-3.328l.021 10.517h3.424v-6.208a1.527 1.527 0 0 1 1.525-1.717c.939 0 1.461.565 1.461 1.632v6.293h3.264v-6.229a1.495 1.495 0 0 1 1.504-1.696c.971 0 1.472.597 1.472 1.664v6.261h3.445V16.65a3.33 3.33 0 0 0-3.446-3.574 3.2 3.2 0 0 0-3.2 2.229h-.149a2.73 2.73 0 0 0-2.923-2.229 3.05 3.05 0 0 0-2.997 2.219h-.075v-2.027zM32.171 10.784a10.538 10.538 0 0 0-18.304-7.125H.555v28.096h28.107V18.624a10.53 10.53 0 0 0 3.509-7.84zm-5.408 0a5.14 5.14 0 1 1-5.141-5.13 5.141 5.141 0 0 1 5.141 5.131zm-20.8 15.563h17.291v-5.152a10.37 10.37 0 0 1-1.632.139c-5.824-.006-10.543-4.726-10.549-10.549.005-.576.058-1.15.16-1.717H5.964v17.28z" style="fill:var(--color1, #696871)"/></symbol><symbol id="icon-logo" viewBox="0 0 31 32"><path fill="#5454d4" d="M23.436 14.199a4.196 4.196 0 0 0-1.201 3.362l-.021-.021c.124 1.463-.404 2.907-1.443 3.945s-2.482 1.566-3.945 1.443l.021.021a4.221 4.221 0 1 0 3.812 3.808l.022.021a4.986 4.986 0 0 1 5.388-5.388l-.022-.021a4.214 4.214 0 0 0 2.588-7.783 4.214 4.214 0 0 0-5.195.614h-.003z" style="fill:var(--color3, #5454d4)"/><path fill="#ff7143" d="m14.969 20.242-.022-.021a4.17 4.17 0 0 0 4.565-4.562l.022.021a4.986 4.986 0 0 1 5.388-5.388l-.022-.021a4.221 4.221 0 1 0-3.808-3.808l-.021-.022a4.985 4.985 0 0 1-5.387 5.387l.021.022a4.17 4.17 0 0 0-4.565 4.562l-.021-.021a4.985 4.985 0 0 1-5.388 5.388l.021.021a4.221 4.221 0 1 0 3.808 3.808l.022.021c-.124-1.463.404-2.907 1.443-3.945s2.482-1.566 3.945-1.443z" style="fill:var(--color4, #ff7143)"/><path fill="#5454d4" d="M7.277 17.939a4.187 4.187 0 0 0 1.199-3.362l.022.021a4.988 4.988 0 0 1 5.39-5.388l-.022-.021a4.22 4.22 0 1 0-3.809-3.809l-.021-.021c.124 1.463-.404 2.907-1.443 3.945s-2.482 1.566-3.945 1.443l.021.021a4.213 4.213 0 1 0 2.609 7.17h-.002z" style="fill:var(--color3, #5454d4)"/></symbol><symbol id="icon-Group" viewBox="0 0 137 32"><path fill="#696871" d="M81.542 8.436a1.748 1.748 0 1 1 .744 3.347 1.67 1.67 0 0 1-1.783-1.68v-.023a1.749 1.749 0 0 1 1.04-1.644zm-38.262.787v13.863h-3.429V9.223h3.429zm6.709 3.154c3.246 0 5.349 2.046 5.349 5.474s-2.057 5.486-5.349 5.486c-3.291 0-5.349-2-5.349-5.486 0-3.429 2.103-5.474 5.349-5.474zm1.908 5.474c0-1.886-.743-2.994-1.909-2.994S48.091 16 48.091 17.851c0 1.851.72 2.971 1.897 2.971s1.909-1.051 1.909-2.96v-.011zm8.023 5.909a1.772 1.772 0 0 0 1.851 1.029c1.303 0 1.989-.709 1.989-1.737v-1.92h-.069a3.246 3.246 0 0 1-3.12 1.874c-2.503 0-4.16-1.909-4.16-5.189s1.577-5.349 4.206-5.349a3.279 3.279 0 0 1 3.154 2.011V12.57H67.2v10.4c0 2.503-2.206 4.057-5.463 4.057-3.029 0-4.914-1.36-5.109-3.257v-.011h3.291zm3.851-5.92c0-1.669-.766-2.72-1.977-2.72s-1.954 1.04-1.954 2.72c0 1.68.731 2.629 1.954 2.629s1.977-.926 1.977-2.617v-.011zm10.069-5.474c3.246 0 5.36 2.046 5.36 5.474s-2.057 5.486-5.36 5.486c-3.303 0-5.349-1.989-5.349-5.474v-.011c0-3.429 2.103-5.474 5.349-5.474zm1.909 5.474c0-1.886-.743-2.994-1.909-2.994S72 16 72 17.863s.72 2.971 1.886 2.971 1.863-1.063 1.863-2.971v-.023zm4.754-5.246v10.491h3.429V12.594h-3.429zm11.748 10.629a3.268 3.268 0 0 1-3.2-1.943h-.069v5.166h-3.429V12.572h3.429v1.874h.069a3.28 3.28 0 0 1 3.177-2.023c2.629.046 4.194 2.011 4.194 5.44l-.046-.023c0 3.429-1.52 5.383-4.126 5.383zm.698-5.383c0-1.669-.766-2.731-1.966-2.731s-1.966 1.074-1.977 2.731c-.011 1.657.777 2.72 1.977 2.72s1.966-1.04 1.966-2.697v-.023zm13.965-1.977c-.08-2.16-1.806-3.509-4.651-3.509v.023c-2.834 0-4.674 1.337-4.697 3.394 0 1.6 1.074 2.686 3.12 3.109l1.977.423c.823.171 1.143.286 1.143.834s-.457.88-1.463.88-1.623-.457-1.726-1.234h-3.303c.149 2.137 2.057 3.531 4.971 3.531s4.891-1.394 4.891-3.566c0-1.589-.891-2.434-2.983-2.88l-2.194-.446c-.766-.16-1.143-.331-1.143-.869s.423-.903 1.371-.903c.949 0 1.566.469 1.566 1.211h3.12zm11.703 7.2h-3.303v-1.954h-.069a2.982 2.982 0 0 1-3.04 2.183 3.647 3.647 0 0 1-3.84-3.943v-6.777h3.429v5.989c0 1.246.64 1.909 1.703 1.909a1.744 1.744 0 0 0 1.737-1.977v-5.92h3.429l-.046 10.491zm4.972-10.492h-3.314l-.057 10.514h3.429v-6.183a1.532 1.532 0 0 1 1.52-1.714c.937 0 1.451.571 1.451 1.623v6.274h3.257v-6.206a1.496 1.496 0 0 1 1.497-1.692c.96 0 1.474.526 1.474 1.669v6.229h3.429v-7.143a3.329 3.329 0 0 0-3.429-3.566 3.222 3.222 0 0 0-3.223 2.286h-.069a2.732 2.732 0 0 0-2.914-2.286 3.041 3.041 0 0 0-2.983 2.217h-.069V12.57zM27.977 6.171a15.168 15.168 0 0 1 2.286 3.68A15.308 15.308 0 0 1 31.543 16c-.006 8.541-6.922 15.467-15.463 15.486a15.293 15.293 0 0 1-5.794-1.143 14.945 14.945 0 0 1-3.657-2.091A15.464 15.464 0 0 1 12.333.932a15.462 15.462 0 0 1 15.644 5.24zm-6.743-1.382a12.243 12.243 0 0 0-5.166-1.143l.011-.023A12.34 12.34 0 0 0 4.914 21.246a3.33 3.33 0 0 0 .903-1.989 6.549 6.549 0 0 1 5.543-5.543 3.428 3.428 0 0 0 3.097-3.029A6.549 6.549 0 0 1 20 5.142c.425-.065.84-.184 1.234-.354zM6.617 24l.137-.123c.091-.081.183-.163.274-.254a6.261 6.261 0 0 0 1.851-3.691 3.338 3.338 0 0 1 .994-2.08 3.233 3.233 0 0 1 2.069-.983 6.549 6.549 0 0 0 5.543-5.543 3.336 3.336 0 0 1 .994-2.183 3.281 3.281 0 0 1 2.091-.949 6.274 6.274 0 0 0 3.429-1.634 12.02 12.02 0 0 1 2.697 3.177.94.94 0 0 1-.149.16 3.283 3.283 0 0 1-2.069 1.006 6.527 6.527 0 0 0-5.543 5.543 3.43 3.43 0 0 1-3.074 3.063 6.582 6.582 0 0 0-5.577 5.543 3.59 3.59 0 0 1-.56 1.566 12.435 12.435 0 0 1-3.109-2.617zm6.023 3.931a12.39 12.39 0 0 0 3.429.48v-.057a12.363 12.363 0 0 0 11.908-15.52 6.52 6.52 0 0 1-2.926 1.143 3.43 3.43 0 0 0-3.063 3.063 6.549 6.549 0 0 1-5.554 5.543 3.43 3.43 0 0 0-3.063 3.063c-.102.8-.35 1.575-.731 2.286z" style="fill:var(--color1, #696871)"/></symbol></defs></svg>