<svg xmlns="http://www.w3.org/2000/svg" width="19" height="30" fill="none"><path fill="#696871" fill-rule="evenodd" d="M2.31 1.69V22a.94.94 0 0 1-.94.94h-.22A.94.94 0 0 1 .21 22V1.69a.94.94 0 0 1 .94-.93h.22a.94.94 0 0 1 .94.93Zm11.53 12.875a1 1 0 0 1 .74-.275l-.05.02a1 1 0 0 1 1.1 1.05v5.5a1.05 1.05 0 1 1-2.1 0v-5.57a1 1 0 0 1 .31-.725Zm3 2.895a1 1 0 0 1 1-1 1 1 0 0 1 1.09 1.05v1.21a1.045 1.045 0 1 1-2.09 0v-1.26Zm-7.9 8.32v-7.23a1.72 1.72 0 0 1-1.09.35 1.77 1.77 0 0 1-1-.34v7.22a1.045 1.045 0 0 0 2.09 0Zm-4.36-4.49a1.8 1.8 0 0 1-1-.34v7.25a1.05 1.05 0 1 0 2.1 0V21a1.83 1.83 0 0 1-1.1.29Zm6.68-4.86a1.83 1.83 0 0 1-1.05-.34v7.27a1.05 1.05 0 1 0 2.1 0V16.1a1.77 1.77 0 0 1-1.1.35l.05-.02Zm-6.57 4.09h-.22a.94.94 0 0 1-.94-.94V4.11a.94.94 0 0 1 .94-.93h.22a.94.94 0 0 1 .94.93V19.6c0 .52-.42.94-.94.94v-.02Zm3.08-2.38H8a.93.93 0 0 0 .93-.93V6.51A.94.94 0 0 0 8 5.57h-.23a.93.93 0 0 0-.93.94v10.7c0 .514.416.93.93.93Zm3.54-2.45h-.21a.94.94 0 0 1-.94-.93V9a.94.94 0 0 1 .94-1h.22c.52 0 .94.42.94.94v5.8a.94.94 0 0 1-.94.95h-.01Zm3.1-2.15h.23a.94.94 0 0 0 .93-.94v-1.49a.94.94 0 0 0-.94-.93h-.22a.94.94 0 0 0-.94.93v1.49c0 .52.42.94.94.94Z" clip-rule="evenodd"/></svg>