<svg xmlns="http://www.w3.org/2000/svg" width="28" height="28" fill="none"><path fill="#696871" fill-rule="evenodd" d="M24.48 5.4a13.251 13.251 0 0 1 2 3.22A13.39 13.39 0 0 1 27.6 14c-.006 7.473-6.057 13.534-13.53 13.55-1.739 0-3.461-.34-5.07-1a13.09 13.09 0 0 1-3.2-1.83A13.53 13.53 0 1 1 24.48 5.4Zm-5.9-1.21a10.71 10.71 0 0 0-4.52-1l.01-.02A10.8 10.8 0 0 0 4.3 18.59a2.91 2.91 0 0 0 .79-1.74A5.73 5.73 0 0 1 9.94 12a3 3 0 0 0 2.71-2.65A5.73 5.73 0 0 1 17.5 4.5a4.39 4.39 0 0 0 1.08-.31ZM5.79 21l.12-.108a5.48 5.48 0 0 0 1.86-3.452 2.92 2.92 0 0 1 .87-1.82 2.83 2.83 0 0 1 1.81-.86 5.73 5.73 0 0 0 4.85-4.85A2.92 2.92 0 0 1 16.17 8 2.87 2.87 0 0 1 18 7.17a5.48 5.48 0 0 0 3-1.43 10.512 10.512 0 0 1 2.36 2.78.86.86 0 0 1-.13.14 2.87 2.87 0 0 1-1.81.88 5.71 5.71 0 0 0-4.85 4.85 3 3 0 0 1-2.69 2.68A5.76 5.76 0 0 0 9 21.92a3.14 3.14 0 0 1-.49 1.37A10.888 10.888 0 0 1 5.79 21Zm5.27 3.44c.975.28 1.985.421 3 .42v-.05a10.82 10.82 0 0 0 10.42-13.58 5.71 5.71 0 0 1-2.56 1 3 3 0 0 0-2.68 2.68 5.73 5.73 0 0 1-4.86 4.85 3 3 0 0 0-2.68 2.68c-.09.7-.306 1.378-.64 2Z" clip-rule="evenodd"/></svg>