<svg xmlns="http://www.w3.org/2000/svg" aria-hidden="true" style="position:absolute;width:0;height:0;overflow:hidden"><defs><symbol id="icon-shape" viewBox="0 0 32 32"><path fill="#696871" d="M27.977 6.171a15.073 15.073 0 0 1 2.247 3.584l.038.096c.809 1.804 1.28 3.91 1.28 6.127v.023V16c-.007 8.541-6.922 15.467-15.463 15.486-1.987 0-3.955-.389-5.794-1.143a15.009 15.009 0 0 1-3.69-2.116l.033.025C2.911 25.398.538 20.953.538 15.953.538 7.413 7.461.49 16.001.49c4.816 0 9.119 2.202 11.954 5.654l.021.027zm-6.743-1.382a12.065 12.065 0 0 0-5.164-1.143h-.001l.011-.023h-.009c-6.817 0-12.343 5.526-12.343 12.343 0 1.918.438 3.734 1.218 5.354l-.032-.074a3.319 3.319 0 0 0 .902-1.975l.001-.013c.427-2.873 2.67-5.115 5.507-5.538l.036-.004a3.434 3.434 0 0 0 3.096-3.013l.002-.016c.427-2.873 2.67-5.115 5.507-5.538l.036-.004a4.996 4.996 0 0 0 1.266-.367l-.032.013zM6.617 24l.137-.123a6.26 6.26 0 0 0 2.122-3.913l.003-.032a3.33 3.33 0 0 1 .994-2.079l.001-.001a3.225 3.225 0 0 1 2.057-.982l.012-.001c2.873-.427 5.115-2.67 5.538-5.507l.004-.036a3.33 3.33 0 0 1 .994-2.182v-.001a3.27 3.27 0 0 1 2.081-.948l.01-.001a6.267 6.267 0 0 0 3.432-1.637l-.003.003a12.111 12.111 0 0 1 2.667 3.122l.03.055c-.045.06-.093.112-.147.159l-.001.001a3.276 3.276 0 0 1-2.055 1.005l-.013.001c-2.876.42-5.123 2.667-5.539 5.508l-.004.035a3.434 3.434 0 0 1-3.06 3.062l-.014.001c-2.882.424-5.135 2.666-5.572 5.506l-.005.037a3.584 3.584 0 0 1-.568 1.579l.008-.013a12.553 12.553 0 0 1-3.095-2.601L6.617 24zm6.023 3.931c1.114.32 2.269.481 3.429.48v-.057c6.809-.027 12.318-5.553 12.318-12.366 0-1.121-.149-2.208-.429-3.241l.02.087a6.452 6.452 0 0 1-2.892 1.139l-.033.004a3.433 3.433 0 0 0-3.062 3.048l-.001.015c-.429 2.876-2.677 5.12-5.519 5.539l-.036.004a3.433 3.433 0 0 0-3.062 3.048l-.001.015c-.103.8-.35 1.575-.731 2.286z" style="fill:var(--color1, #696871)"/></symbol><symbol id="icon-shape2" viewBox="0 0 33 32"><path fill="#696871" d="M32.171 10.784a10.51 10.51 0 0 1-3.509 7.84v13.131H.555V3.659l13.319-.007A10.51 10.51 0 0 1 21.632.246c5.82 0 10.539 4.718 10.539 10.539v.001zm-5.408 0v-.001a5.142 5.142 0 0 0-10.282.011v.012a5.142 5.142 0 0 0 10.282-.011v-.011zm-20.8 15.563h17.291v-5.152c-.489.085-1.053.136-1.629.139h-.003c-5.824-.006-10.543-4.725-10.549-10.549.004-.576.059-1.151.16-1.717H5.964v17.28z" style="fill:var(--color1, #696871)"/></symbol><symbol id="icon-shape3" viewBox="0 0 37 32"><path fill="#696871" d="M.613 14.093C2.656 6.079 9.81.247 18.326.247s15.67 5.832 17.686 13.72l.027.126h-1.6l-.19-.001a12.86 12.86 0 0 0-7.411 2.336l.041-.027a3.692 3.692 0 0 1-.4.253h-.187a3.89 3.89 0 0 1-.411-.261l.011.008c-2.123-1.445-4.744-2.307-7.567-2.307s-5.443.862-7.614 2.338l.047-.03a3.692 3.692 0 0 1-.4.253h-.187a3.736 3.736 0 0 1-.411-.261l.011.007a12.815 12.815 0 0 0-7.57-2.306h.01-1.6zm30.947 8.36a4.468 4.468 0 0 1 2.886-.946h-.006 2.147v-4.28H34.44l-.103-.001c-1.881 0-3.619.61-5.027 1.644l.024-.017c-.795.591-1.796.947-2.88.947s-2.085-.355-2.893-.956l.013.009c-1.445-1.017-3.241-1.625-5.18-1.625s-3.735.608-5.209 1.645l.029-.019c-.795.591-1.796.947-2.88.947s-2.085-.355-2.893-.956l.013.009a8.44 8.44 0 0 0-5.005-1.628l-.177.002h.009H.068v4.28h2.147l.119-.002c1.045 0 2.007.357 2.771.956l-.01-.007c1.442 1.018 3.237 1.627 5.173 1.627s3.731-.609 5.202-1.646l-.029.019a4.494 4.494 0 0 1 2.886-.947h-.006l.128-.002c1.043 0 2.002.357 2.762.956l-.01-.007c1.445 1.017 3.241 1.625 5.18 1.625s3.735-.608 5.209-1.645l-.029.019zm2.88 6.707a4.476 4.476 0 0 0-2.89.954l.01-.007c-1.445 1.017-3.241 1.625-5.18 1.625s-3.735-.608-5.209-1.645l.029.019a4.44 4.44 0 0 0-2.752-.948l-.135.002h.007l-.11-.001a4.501 4.501 0 0 0-2.78.956l.01-.008c-1.443 1.018-3.237 1.627-5.173 1.627s-3.731-.609-5.202-1.646l.029.019a4.468 4.468 0 0 0-2.886-.946h.006H.067v-4.28H2.28l.168-.002c1.881 0 3.62.611 5.029 1.645l-.024-.017c.795.591 1.796.947 2.88.947s2.085-.355 2.893-.956l-.013.009c1.445-1.017 3.241-1.625 5.18-1.625s3.735.608 5.209 1.645l-.029-.019c.795.591 1.796.947 2.88.947s2.085-.355 2.893-.956l-.013.009a8.443 8.443 0 0 1 5.112-1.626h-.005 2.147v4.28H34.44z" style="fill:var(--color1, #696871)"/></symbol><symbol id="icon-shape4" viewBox="0 0 20 32"><path fill="#696871" d="M2.464 1.803v21.664c0 .554-.449 1.003-1.003 1.003h-.235a1.003 1.003 0 0 1-1.003-1.003V1.803A1.003 1.003 0 0 1 1.226.811h.235c.55 0 .997.443 1.003.991v.001zm12.299 13.733a1.064 1.064 0 0 1 .792-.294h-.003l-.053.021a1.067 1.067 0 0 1 1.175 1.062l-.002.062v-.003 5.867a1.12 1.12 0 1 1-2.24 0v-5.942c0-.304.127-.577.33-.772zm3.2 3.088c0-.589.478-1.067 1.067-1.067a1.067 1.067 0 0 1 1.163 1.124v-.003 1.291a1.115 1.115 0 1 1-2.23 0v-1.344zm-8.427 8.875v-7.712a1.826 1.826 0 0 1-1.11.374l-.055-.001h.003a1.884 1.884 0 0 1-1.072-.366l.005.004v7.701a1.115 1.115 0 1 0 2.23 0zm-4.651-4.79a1.916 1.916 0 0 1-1.072-.366l.005.004v7.733a1.12 1.12 0 1 0 2.24 0V22.4a1.934 1.934 0 0 1-1.179.309h.005zm7.126-5.184a1.94 1.94 0 0 1-1.126-.367l.006.004v7.755a1.12 1.12 0 1 0 2.24 0v-7.744a1.879 1.879 0 0 1-1.128.374l-.048-.001h.002l.053-.021zm-7.008 4.363h-.235a1.003 1.003 0 0 1-1.003-1.003V4.384a1.003 1.003 0 0 1 1.003-.992h.235c.55 0 .997.443 1.003.991v16.523c0 .555-.448 1.003-1.003 1.003v-.021zm3.285-2.539h.245a.992.992 0 0 0 .992-.992V6.944c0-.55-.443-.997-.991-1.003h-.246a.992.992 0 0 0-.992.992v.011-.001 11.413c0 .548.444.992.992.992zm3.776-2.613h-.224c-.55 0-.997-.443-1.003-.991V9.6a1.003 1.003 0 0 1 1.001-1.067h.237c.555 0 1.003.448 1.003 1.003v6.198c0 .554-.449 1.003-1.003 1.003h-.011zm3.307-2.293h.245c.549-.006.992-.453.992-1.003v-1.589a1.003 1.003 0 0 0-1.003-.992h-.235c-.55 0-.997.443-1.003.991v1.59c0 .555.448 1.003 1.003 1.003z" style="fill:var(--color1, #696871)"/></symbol><symbol id="icon-shape5" viewBox="0 0 100 32"><path fill="#696871" d="M50.531 30.778c8.426 0 15.258-6.832 15.258-15.258S58.957.262 50.531.262 35.273 7.094 35.273 15.52s6.832 15.258 15.258 15.258zm34.109 0c8.428 0 15.258-6.832 15.258-15.258S93.066.262 84.64.262 69.382 7.094 69.382 15.52s6.832 15.258 15.258 15.258zM1.178.262H31.68v30.502H1.178z" style="fill:var(--color1, #696871)"/></symbol></defs></svg>




