<svg xmlns="http://www.w3.org/2000/svg" width="40" height="41" fill="none"><path fill="#5454D4" d="M30.028 18.193A5.376 5.376 0 0 0 28.49 22.5l-.027-.026a6.388 6.388 0 0 1-6.903 6.902l.027.027a5.409 5.409 0 1 0 4.884 4.88l.027.026a6.388 6.388 0 0 1 6.903-6.903l-.028-.027a5.398 5.398 0 1 0-3.34-9.186h-.005Z"/><path fill="#FF7143" d="m19.18 25.935-.029-.026A5.34 5.34 0 0 0 25 20.065l.028.026a6.388 6.388 0 0 1 6.903-6.903l-.028-.026a5.409 5.409 0 1 0-4.88-4.88l-.026-.028a6.387 6.387 0 0 1-6.903 6.903l.027.028a5.34 5.34 0 0 0-5.849 5.844l-.026-.026a6.39 6.39 0 0 1-6.903 6.903l.026.026a5.409 5.409 0 1 0 4.88 4.88l.027.026a6.388 6.388 0 0 1 6.903-6.903Z"/><path fill="#5454D4" d="M9.324 22.984a5.37 5.37 0 0 0 1.536-4.308l.028.027a6.388 6.388 0 0 1 6.906-6.903l-.028-.027a5.407 5.407 0 1 0-4.88-4.879l-.026-.026a6.388 6.388 0 0 1-6.903 6.903l.027.026a5.398 5.398 0 1 0 3.342 9.187h-.002Z"/></svg>